<svg id="レイヤー_1" data-name="レイヤー 1" xmlns="http://www.w3.org/2000/svg" viewBox="0 0 80 80"><defs><style>.cls-1{fill:#ec661b;}.cls-2{fill:#fff;}</style></defs><title>logo01</title><rect class="cls-1" width="80" height="80"/><path class="cls-2" d="M47.35,20.79l1.32-2.05a18.52,18.52,0,0,0-5.07-2.91l-.6,1A15.68,15.68,0,0,1,47.35,20.79Z"/><path class="cls-2" d="M46,28.83l1.32-2a18.63,18.63,0,0,0-5.07-2.91l-.6,1A15.55,15.55,0,0,1,46,28.83Z"/><path class="cls-2" d="M40,58c0,5.7,2.69,7.2,6.05,7.2,4,0,6.1-1.64,6.1-7.26v-8.3a1.61,1.61,0,0,1,.38-1.07H50.4a1.61,1.61,0,0,1,.38,1.07v7.33c0,3.88-.65,7-4.17,7s-4.35-2.56-4.35-6.76V49.61a1.63,1.63,0,0,1,.37-1.07h-3A1.61,1.61,0,0,1,40,49.61Z"/><path class="cls-2" d="M62.84,56.13a4.58,4.58,0,0,0,2.54-3.8c0-2.46-1.87-3.79-4.94-3.79H55a1.61,1.61,0,0,1,.38,1.07V63.74A1.65,1.65,0,0,1,55,64.82h6.34c3.14,0,5.14-2.16,5.14-4.71A3.7,3.7,0,0,0,62.84,56.13ZM57.6,49.59h1.94c2.19,0,3.68.71,3.68,2.74A3.28,3.28,0,0,1,59.61,56h-2Zm3,14.16h-3V57h3c2.19,0,3.69.72,3.69,3.11A3.43,3.43,0,0,1,60.63,63.75Z"/><path class="cls-2" d="M56.75,29.19H50.46v11.4H65.37V29.19H59.13V25.13h7.8V23.57h-7.8V19.11a22.07,22.07,0,0,0,5-.82,4.93,4.93,0,0,1,1.49-.08l-1.57-2.6c-1,.59-5.23,2.23-11.37,2.23H50.14v1.45h3.77c1.05,0,2,0,2.84-.05v4.33H48.89v1.56h7.86ZM63,30.73v8.32H52.84V30.73Z"/><path class="cls-2" d="M42,39.58l2.73,1.79A7.81,7.81,0,0,1,45,39.8c.22-.52,4-9.9,4-9.9l-1.29-.66S43.57,38.16,42,39.58Z"/><path class="cls-2" d="M21,65.19a10.34,10.34,0,0,0,4.46-1.13l.05-2A6,6,0,0,1,21,63.91c-2.77,0-5-3.37-5-7.24s2.27-7.25,5-7.25a5.94,5.94,0,0,1,4.51,1.85l-.05-2A10.34,10.34,0,0,0,21,48.15c-3.15,0-7.45,2.23-7.45,8.52S17.86,65.19,21,65.19Z"/><path class="cls-2" d="M15,23.13V21.38L13.45,21v2.76a17.12,17.12,0,0,1-1.94,8.14l2.55.8C14.53,31.44,15,28,15,23.13Z"/><path class="cls-2" d="M35.75,63.59H30.68v-14a1.59,1.59,0,0,1,.39-1.07H28a1.61,1.61,0,0,1,.38,1.07V64.82H38.56V62.91S38,63.59,35.75,63.59Z"/><path class="cls-2" d="M16.57,41.13h2.32V17.69a3.17,3.17,0,0,1,.27-1.49l-2.94-.15a2.42,2.42,0,0,1,.35,1.35Z"/><path class="cls-2" d="M23.33,25.77A14.91,14.91,0,0,0,20.66,21l-.92.64a16.16,16.16,0,0,1,1.81,5.62Z"/><path class="cls-2" d="M28.25,26.53A17.13,17.13,0,0,1,28,29.37H20.88v1.55h6.81a16.67,16.67,0,0,1-7,9.3l.81,1.07a18.51,18.51,0,0,0,8-9.47c1.3,3.56,3.89,6.7,7.77,9.47l1.3-1.86c-3.73-2.5-6.34-5.07-7.5-8.51h7.49V29.37H36.3V19.86H30.57V17.69a3.17,3.17,0,0,1,.27-1.49l-3-.15a2.29,2.29,0,0,1,.38,1.35v2.46H23.11v1.55h5.14Zm2.32-.5V21.41h3.36v8H30.24A16.74,16.74,0,0,0,30.57,26Z"/></svg>